P2  # PGM ASCII
67 67 # Dimensions du graphe C (largeur) et L (hauteur)
255  # Intensité maximale (couleur blanche)
21 16 12 8 4 0 0 0 0 0 0 0 0 0 0 0 0 0 0 0 0 0 0 0 0 0 0 0 0 0 4 8 12 16 21 25 29 33 37 42 46 50 54 59 63 67 71 75 80 84 88 92 96 101 105 109 113 118 122 126 130 134 139 143 147 151 155 
21 16 12 8 4 0 0 0 0 0 0 0 0 0 0 0 0 0 0 0 0 0 0 0 0 0 0 0 0 0 4 8 12 16 21 25 29 33 37 42 46 50 54 59 63 67 71 75 80 84 88 92 96 101 105 109 113 118 122 126 130 134 139 143 147 151 155 
21 16 12 8 4 0 0 0 0 0 0 0 0 0 0 0 0 0 0 0 0 0 0 0 0 0 0 0 0 0 4 8 12 16 21 25 29 33 37 42 46 50 54 59 63 67 71 75 80 84 88 92 96 101 105 109 113 118 122 126 130 134 139 143 147 151 155 
21 16 12 8 4 0 0 0 0 0 0 0 0 0 0 0 0 0 0 0 0 0 0 0 0 0 0 0 0 0 4 8 12 16 21 25 29 33 37 42 46 50 54 59 63 67 71 75 80 84 88 92 96 101 105 109 113 118 122 126 130 134 139 143 147 151 155 
21 16 12 8 4 0 0 0 0 0 0 0 0 0 0 0 0 0 0 0 0 0 0 0 0 0 0 0 0 0 4 8 12 16 21 25 29 33 37 42 46 50 54 59 63 67 71 75 80 84 88 92 96 101 105 109 113 118 122 126 130 134 139 143 147 151 155 
21 16 12 8 4 0 0 0 0 0 0 0 0 0 0 0 0 0 0 0 0 0 0 0 0 0 0 0 0 0 4 8 12 16 21 25 29 33 37 42 46 50 54 59 63 67 71 75 80 84 88 92 96 101 105 109 113 118 122 126 130 134 139 143 147 151 155 
21 16 12 8 4 0 0 0 0 0 0 0 0 0 0 0 0 0 0 0 0 0 0 0 0 0 0 0 0 0 4 8 12 16 21 25 29 33 37 42 46 50 54 59 63 67 71 75 80 84 88 92 96 101 105 109 113 118 122 126 130 134 139 143 147 151 155 
21 16 12 8 4 0 0 0 0 0 0 0 0 0 0 0 0 0 0 0 0 0 0 0 0 0 0 0 0 0 4 8 12 16 21 25 29 33 37 42 46 50 54 59 63 67 71 75 80 84 88 92 96 101 105 109 113 118 122 126 130 134 139 143 147 151 155 
21 16 12 8 4 0 0 0 0 0 0 0 0 0 0 0 0 0 0 0 0 0 0 0 0 0 0 0 0 0 4 8 12 16 21 25 29 33 37 42 46 50 54 59 63 67 71 75 80 84 88 92 96 101 105 109 113 118 122 126 130 134 139 143 147 151 155 
21 16 12 8 4 0 0 0 0 0 0 0 0 0 0 0 0 0 0 0 0 0 0 0 0 0 0 0 0 0 4 8 12 16 21 25 29 33 37 42 46 50 54 59 63 67 71 75 80 84 88 92 96 101 105 109 113 118 122 126 130 134 139 143 147 151 155 
21 16 12 8 4 0 0 0 0 0 0 0 0 0 0 0 0 0 0 0 0 0 0 0 0 0 0 0 0 0 4 8 12 16 21 25 29 33 37 42 46 50 54 59 63 67 71 75 80 84 88 92 96 101 105 109 113 118 122 126 130 134 139 143 147 151 155 
21 16 12 8 4 0 0 0 0 0 0 0 0 0 0 0 0 0 0 0 0 0 0 0 0 0 0 0 0 0 4 8 12 16 21 25 29 33 37 42 46 50 54 59 63 67 71 75 80 84 88 92 96 101 105 109 113 118 122 126 130 134 139 143 147 151 155 
21 16 12 8 4 0 0 0 0 0 0 0 0 0 0 0 0 0 0 0 0 0 0 0 0 0 0 0 0 0 4 8 12 16 21 25 29 33 37 42 46 50 54 59 63 67 71 75 80 84 88 92 96 101 105 109 113 118 122 126 130 134 139 143 147 151 155 
21 16 12 8 4 0 0 0 0 0 0 0 0 0 0 0 0 0 0 0 0 0 0 0 0 0 0 0 0 0 4 8 12 16 21 25 29 33 37 42 46 50 54 59 63 67 71 75 80 84 88 92 96 101 105 109 113 118 122 126 130 134 139 143 147 151 155 
21 16 12 8 4 0 0 0 0 0 0 0 0 0 0 0 0 0 0 0 0 0 0 0 0 0 0 0 0 0 4 8 12 16 21 25 29 33 37 42 46 50 54 59 63 67 71 75 80 84 88 92 96 101 105 109 113 118 122 126 130 134 139 143 147 151 155 
21 16 12 8 4 0 0 0 0 0 0 0 0 0 0 0 0 0 0 0 0 0 0 0 0 0 0 0 0 0 4 8 12 16 21 25 29 33 37 42 46 50 54 59 63 67 71 75 80 84 88 92 96 101 105 109 113 118 122 126 130 134 139 143 147 151 155 
21 16 12 8 4 0 0 0 0 0 0 0 0 0 0 0 0 0 0 0 0 0 0 0 0 0 0 0 0 0 4 8 12 16 21 25 29 33 37 42 46 50 54 59 63 67 71 75 80 84 88 92 96 101 105 109 113 118 122 126 130 134 139 143 147 151 155 
21 16 12 8 4 0 0 0 0 0 0 0 0 0 0 0 0 0 0 0 0 0 0 0 0 0 0 0 0 0 4 8 12 16 21 25 29 33 37 42 46 50 54 59 63 67 71 75 80 84 88 92 96 101 105 109 113 118 122 126 130 134 139 143 147 151 155 
21 16 12 8 4 0 0 0 0 0 0 0 0 0 0 0 0 0 0 0 0 0 0 0 0 0 0 0 0 0 4 8 12 16 21 25 29 33 37 42 46 50 54 59 63 67 71 75 80 84 88 92 96 101 105 109 113 118 122 126 130 134 139 143 147 151 155 
21 16 12 8 4 0 0 0 0 0 0 0 0 0 0 0 0 0 0 0 0 0 0 0 0 0 0 0 0 0 4 8 12 16 21 25 29 33 37 42 46 50 54 59 63 67 71 75 80 84 88 92 96 101 105 109 113 118 122 126 130 134 139 143 147 151 155 
21 16 12 8 4 0 0 0 0 0 0 0 0 0 0 0 0 0 0 0 0 0 0 0 0 0 0 0 0 0 4 8 12 16 21 25 29 33 37 42 46 50 54 59 63 67 71 75 80 84 88 92 96 101 105 109 113 118 122 126 130 134 139 143 147 151 155 
21 16 12 8 4 0 0 0 0 0 0 0 0 0 0 0 0 0 0 0 0 0 0 0 0 0 0 0 0 0 4 8 12 16 21 25 29 33 37 42 46 50 54 59 63 67 71 75 80 84 88 92 96 101 105 109 113 118 122 126 130 134 139 143 147 151 155 
21 16 12 8 4 0 0 0 0 0 0 0 0 0 0 0 0 0 0 0 0 0 0 0 0 0 0 0 0 0 4 8 12 16 21 25 29 33 37 42 46 50 54 59 63 67 71 75 80 84 88 92 96 101 105 109 113 118 122 126 130 134 139 143 147 151 155 
21 16 12 8 4 0 0 0 0 0 0 0 0 0 0 0 0 0 0 0 0 0 0 0 0 0 0 0 0 0 4 8 12 16 21 25 29 33 37 42 46 50 54 59 63 67 71 75 80 84 88 92 96 101 105 109 113 118 122 126 130 134 139 143 147 151 155 
21 16 12 8 4 0 0 0 0 0 0 0 0 0 0 0 0 0 0 0 0 0 0 0 0 0 0 0 0 0 4 8 12 16 21 25 29 33 37 42 46 50 54 59 63 67 71 75 80 84 88 92 96 101 105 109 113 118 122 126 130 134 139 143 147 151 155 
23 18 14 10 6 4 4 4 4 4 4 4 4 4 4 4 4 4 4 4 4 4 4 4 4 4 4 4 4 4 6 10 14 18 23 27 31 35 40 44 48 52 56 61 65 69 73 77 82 86 90 94 99 103 107 111 115 120 124 128 132 136 141 145 149 153 158 
25 21 16 12 10 8 8 8 8 8 8 8 8 8 8 8 8 8 8 8 8 8 8 8 8 8 8 8 8 8 10 12 16 21 25 29 33 37 42 46 50 54 59 63 67 71 75 80 84 88 92 96 101 105 109 113 118 122 126 130 134 139 143 147 151 155 160 
27 23 18 16 14 12 12 12 12 12 12 12 12 12 12 12 12 12 12 12 12 12 12 12 12 12 12 12 12 12 14 16 18 23 27 31 35 40 44 48 52 56 61 65 69 73 77 82 86 90 94 99 103 107 111 115 120 124 128 132 136 141 145 149 153 158 162 
29 25 23 21 18 16 16 16 16 16 16 16 16 16 16 16 16 16 16 16 16 16 16 16 16 16 16 16 16 16 18 21 23 25 29 33 37 42 46 50 54 59 63 67 71 75 80 84 88 92 96 101 105 109 113 118 122 126 130 134 139 143 147 151 155 160 164 
31 29 27 25 23 21 21 21 21 21 21 21 21 21 21 21 21 21 21 21 21 21 21 21 21 21 21 21 21 21 23 25 27 29 31 35 40 44 48 52 56 61 65 69 73 77 82 86 90 94 99 103 107 111 115 120 124 128 132 136 141 145 149 153 158 162 166 
35 33 31 29 27 25 25 25 25 25 25 25 25 25 25 25 25 25 25 25 25 25 25 25 25 25 25 25 25 25 27 29 31 33 35 37 42 46 50 54 59 63 67 71 75 80 84 88 92 96 101 105 109 113 118 122 126 130 134 139 143 147 151 155 160 164 168 
40 37 35 33 31 29 29 29 29 29 29 29 29 29 29 29 29 29 29 29 29 29 29 29 29 29 29 29 29 29 31 33 35 37 40 42 44 48 52 56 61 65 69 73 77 82 86 90 94 99 103 107 111 115 120 124 128 132 136 141 145 149 153 158 162 166 170 
44 42 40 37 35 33 33 33 33 33 33 33 33 33 33 33 33 33 33 33 33 33 33 33 33 33 33 33 33 33 35 37 40 42 44 46 48 50 54 59 63 67 71 75 80 84 88 92 96 101 105 109 113 118 122 126 130 134 139 143 147 151 155 160 164 168 172 
48 46 44 42 40 37 37 37 37 37 37 37 37 37 37 37 37 37 37 37 37 37 37 37 37 37 37 37 37 37 40 42 44 46 48 50 52 54 56 61 65 69 73 77 82 86 90 94 99 103 107 111 115 120 124 128 132 136 141 145 149 153 158 162 166 170 174 
52 50 48 46 44 42 42 42 42 42 42 42 42 42 42 42 42 42 42 42 42 42 42 42 42 42 42 42 42 42 44 46 48 50 52 54 56 59 61 63 67 71 75 80 84 88 92 96 101 105 109 113 118 122 126 130 134 139 143 147 151 155 160 164 168 172 177 
56 54 52 50 48 46 46 46 46 46 46 46 46 46 46 46 46 46 46 46 46 46 46 46 46 46 46 46 46 46 48 50 52 54 56 59 61 63 65 67 69 73 77 82 86 90 94 99 103 107 111 115 120 124 128 132 136 141 145 149 153 158 162 166 170 174 179 
61 59 56 54 52 50 50 50 50 50 50 50 50 50 50 50 50 50 50 50 50 50 50 50 50 50 50 50 50 50 52 54 56 59 61 63 65 67 69 71 73 75 80 84 88 92 96 101 105 109 113 118 122 126 130 134 139 143 147 151 155 160 164 168 172 177 181 
65 63 61 59 56 54 54 54 54 54 54 54 54 54 54 54 54 54 54 54 54 54 54 54 54 54 54 54 54 54 56 59 61 63 65 67 69 71 73 75 77 80 82 86 90 94 99 103 107 111 115 120 124 128 132 136 141 145 149 153 158 162 166 170 174 179 183 
69 67 65 63 61 59 59 59 59 59 59 59 59 59 59 59 59 59 59 59 59 59 59 59 59 59 59 59 59 59 61 63 65 67 69 71 73 75 77 80 82 84 86 88 92 96 101 105 109 113 118 122 126 130 134 139 143 147 151 155 160 164 168 172 177 181 185 
73 71 69 67 65 63 63 63 63 63 63 63 63 63 63 63 63 63 63 63 63 63 63 63 63 63 63 63 63 63 65 67 69 71 73 75 77 80 82 84 86 88 90 92 94 99 103 107 111 115 120 124 128 132 136 141 145 149 153 158 162 166 170 174 179 183 187 
77 75 73 71 69 67 67 67 67 67 67 67 67 67 67 67 67 67 67 67 67 67 67 67 67 67 67 67 67 67 69 71 73 75 77 80 82 84 86 88 90 92 94 96 99 101 105 109 113 118 122 126 130 134 139 143 147 151 155 160 164 168 172 177 181 185 189 
82 80 77 75 73 71 71 71 71 71 71 71 71 71 71 71 71 71 71 71 71 71 71 71 71 71 71 71 71 71 73 75 77 80 82 84 86 88 90 92 94 96 99 101 103 105 107 111 115 120 124 128 132 136 141 145 149 153 158 162 166 170 174 179 183 187 191 
86 84 82 80 77 75 75 75 75 75 75 75 75 75 75 75 75 75 75 75 75 75 75 75 75 75 75 75 75 75 77 80 82 84 86 88 90 92 94 96 99 101 103 105 107 109 111 113 118 122 126 130 134 139 143 147 151 155 160 164 168 172 177 181 185 189 193 
90 88 86 84 82 80 80 80 80 80 80 80 80 80 80 80 80 80 80 80 80 80 80 80 80 80 80 80 80 80 82 84 86 88 90 92 94 96 99 101 103 105 107 109 111 113 115 118 120 124 128 132 136 141 145 149 153 158 162 166 170 174 179 183 187 191 195 
94 92 90 88 86 84 84 84 84 84 84 84 84 84 84 84 84 84 84 84 84 84 84 84 84 84 84 84 84 84 86 88 90 92 94 96 99 101 103 105 107 109 111 113 115 118 120 122 124 126 130 134 139 143 147 151 155 160 164 168 172 177 181 185 189 193 198 
99 96 94 92 90 88 88 88 88 88 88 88 88 88 88 88 88 88 88 88 88 88 88 88 88 88 88 88 88 88 90 92 94 96 99 101 103 105 107 109 111 113 115 118 120 122 124 126 128 130 132 136 141 145 149 153 158 162 166 170 174 179 183 187 191 195 200 
103 101 99 96 94 92 92 92 92 92 92 92 92 92 92 92 92 92 92 92 92 92 92 92 92 92 92 92 92 92 94 96 99 101 103 105 107 109 111 113 115 118 120 122 124 126 128 130 132 134 136 139 143 147 151 155 160 164 168 172 177 181 185 189 193 198 202 
107 105 103 101 99 96 96 96 96 96 96 96 96 96 96 96 96 96 96 96 96 96 96 96 96 96 96 96 96 96 99 101 103 105 107 109 111 113 115 118 120 122 124 126 128 130 132 134 136 139 141 143 145 149 153 158 162 166 170 174 179 183 187 191 195 200 204 
111 109 107 105 103 101 101 101 101 101 101 101 101 101 101 101 101 101 101 101 101 101 101 101 101 101 101 101 101 101 103 105 107 109 111 113 115 118 120 122 124 126 128 130 132 134 136 139 141 143 145 147 149 151 155 160 164 168 172 177 181 185 189 193 198 202 206 
115 113 111 109 107 105 105 105 105 105 105 105 105 105 105 105 105 105 105 105 105 105 105 105 105 105 105 105 105 105 107 109 111 113 115 118 120 122 124 126 128 130 132 134 136 139 141 143 145 147 149 151 153 155 158 162 166 170 174 179 183 187 191 195 200 204 208 
120 118 115 113 111 109 109 109 109 109 109 109 109 109 109 109 109 109 109 109 109 109 109 109 109 109 109 109 109 109 111 113 115 118 120 122 124 126 128 130 132 134 136 139 141 143 145 147 149 151 153 155 158 160 162 164 168 172 177 181 185 189 193 198 202 206 210 
124 122 120 118 115 113 113 113 113 113 113 113 113 113 113 113 113 113 113 113 113 113 113 113 113 113 113 113 113 113 115 118 120 122 124 126 128 130 132 134 136 139 141 143 145 147 149 151 153 155 158 160 162 164 166 168 170 174 179 183 187 191 195 200 204 208 212 
128 126 124 122 120 118 118 118 118 118 118 118 118 118 118 118 118 118 118 118 118 118 118 118 118 118 118 118 118 118 120 122 124 126 128 130 132 134 136 139 141 143 145 147 149 151 153 155 158 160 162 164 166 168 170 172 174 177 181 185 189 193 198 202 206 210 214 
132 130 128 126 124 122 122 122 122 122 122 122 122 122 122 122 122 122 122 122 122 122 122 122 122 122 122 122 122 122 124 126 128 130 132 134 136 139 141 143 145 147 149 151 153 155 158 160 162 164 166 168 170 172 174 177 179 181 183 187 191 195 200 204 208 212 217 
136 134 132 130 128 126 126 126 126 126 126 126 126 126 126 126 126 126 126 126 126 126 126 126 126 126 126 126 126 126 128 130 132 134 136 139 141 143 145 147 149 151 153 155 158 160 162 164 166 168 170 172 174 177 179 181 183 185 187 189 193 198 202 206 210 214 219 
141 139 136 134 132 130 130 130 130 130 130 130 130 130 130 130 130 130 130 130 130 130 130 130 130 130 130 130 130 130 132 134 136 139 141 143 145 147 149 151 153 155 158 160 162 164 166 168 170 172 174 177 179 181 183 185 187 189 191 193 195 200 204 208 212 217 221 
145 143 141 139 136 134 134 134 134 134 134 134 134 134 134 134 134 134 134 134 134 134 134 134 134 134 134 134 134 134 136 139 141 143 145 147 149 151 153 155 158 160 162 164 166 168 170 172 174 177 179 181 183 185 187 189 191 193 195 198 200 202 206 210 214 219 223 
149 147 145 143 141 139 139 139 139 139 139 139 139 139 139 139 139 139 139 139 139 139 139 139 139 139 139 139 139 139 141 143 145 147 149 151 153 155 158 160 162 164 166 168 170 172 174 177 179 181 183 185 187 189 191 193 195 198 200 202 204 206 208 212 217 221 225 
153 151 149 147 145 143 143 143 143 143 143 143 143 143 143 143 143 143 143 143 143 143 143 143 143 143 143 143 143 143 145 147 149 151 153 155 158 160 162 164 166 168 170 172 174 177 179 181 183 185 187 189 191 193 195 198 200 202 204 206 208 210 212 214 219 223 227 
158 155 153 151 149 147 147 147 147 147 147 147 147 147 147 147 147 147 147 147 147 147 147 147 147 147 147 147 147 147 149 151 153 155 158 160 162 164 166 168 170 172 174 177 179 181 183 185 187 189 191 193 195 198 200 202 204 206 208 210 212 214 217 219 221 225 229 
162 160 158 155 153 151 151 151 151 151 151 151 151 151 151 151 151 151 151 151 151 151 151 151 151 151 151 151 151 151 153 155 158 160 162 164 166 168 170 172 174 177 179 181 183 185 187 189 191 193 195 198 200 202 204 206 208 210 212 214 217 219 221 223 225 227 231 
166 164 162 160 158 155 155 155 155 155 155 155 155 155 155 155 155 155 155 155 155 155 155 155 155 155 155 155 155 155 158 160 162 164 166 168 170 172 174 177 179 181 183 185 187 189 191 193 195 198 200 202 204 206 208 210 212 214 217 219 221 223 225 227 229 231 233 
170 168 166 164 162 160 160 160 160 160 160 160 160 160 160 160 160 160 160 160 160 160 160 160 160 160 160 160 160 160 162 164 166 168 170 172 174 177 179 181 183 185 187 189 191 193 195 198 200 202 204 206 208 210 212 214 217 219 221 223 225 227 229 231 233 236 238 
174 172 170 168 166 164 164 164 164 164 164 164 164 164 164 164 164 164 164 164 164 164 164 164 164 164 164 164 164 164 166 168 170 172 174 177 179 181 183 185 187 189 191 193 195 198 200 202 204 206 208 210 212 214 217 219 221 223 225 227 229 231 233 236 238 240 242 
179 177 174 172 170 168 168 168 168 168 168 168 168 168 168 168 168 168 168 168 168 168 168 168 168 168 168 168 168 168 170 172 174 177 179 181 183 185 187 189 191 193 195 198 200 202 204 206 208 210 212 214 217 219 221 223 225 227 229 231 233 236 238 240 242 244 246 
183 181 179 177 174 172 172 172 172 172 172 172 172 172 172 172 172 172 172 172 172 172 172 172 172 172 172 172 172 172 174 177 179 181 183 185 187 189 191 193 195 198 200 202 204 206 208 210 212 214 217 219 221 223 225 227 229 231 233 236 238 240 242 244 246 248 250 
187 185 183 181 179 177 177 177 177 177 177 177 177 177 177 177 177 177 177 177 177 177 177 177 177 177 177 177 177 177 179 181 183 185 187 189 191 193 195 198 200 202 204 206 208 210 212 214 217 219 221 223 225 227 229 231 233 236 238 240 242 244 246 248 250 252 255 
